{"title":"Two And A Half Men Dva ipo muskarca serijal 8+prevod","uid":7115457,"size":2915831814,"categoryP":"video","categoryS":"tv_shows","magnet":"?xt=urn:btih:993f5b9a021321141b8e62465b35232f8ee2d927&amp;dn=Two+And+A+Half+Men+Dva+ipo+muskarca+serijal+8%2Bprevod&amp;tr=udp%3A%2F%2Ftracker.openbittorrent.com%3A80&amp;tr=udp%3A%2F%2Fopen.demonii.com%3A1337&amp;tr=udp%3A%2F%2Ftracker.coppersurfer.tk%3A6969&amp;tr=udp%3A%2F%2Fexodus.desync.com%3A6969","seeders":0,"leechers":1,"uploader":"homerruma","files":-1,"time":1332200814,"description":"Two And A Half Men Dva ipo muskarca serijal 8+prevod\n\nDVDrip\n\nUKLJUCUJE PREVOD\n\n\nGeneral\nComplete name                    : two.and.a.half.men.s08e01.dvdrip.xvid-reward.avi\nFormat                           : AVI\nFormat/Info                      : Audio Video Interleave\nFile size                        : 175 MiB\nDuration                         : 20mn 44s\nOverall bit rate                 : 1 180 Kbps\nWriting application              : VirtualDubMod 1.5.10.2 (build 2540/release)\nWriting library                  : VirtualDubMod build 2540/release\n\nVideo\nID                               : 0\nFormat                           : MPEG-4 Visual\nFormat profile                   : Advanced Simple@L5\nFormat settings, BVOP            : Yes\nFormat settings, QPel            : No\nFormat settings, GMC             : No warppoints\nFormat settings, Matrix          : Default (H.263)\nMuxing mode                      : Packed bitstream\nCodec ID                         : XVID\nCodec ID/Hint                    : XviD\nDuration                         : 20mn 44s\nBit rate                         : 1 043 Kbps\nWidth                            : 624 pixels\nHeight                           : 352 pixels\nDisplay aspect ratio             : 16:9\nFrame rate                       : 25.000 fps\nColor space                      : YUV\nChroma subsampling               : 4:2:0\nBit depth                        : 8 bits\nScan type                        : Progressive\nCompression mode                 : Lossy\nBits/(Pixel*Frame)               : 0.190\nStream size                      : 155 MiB (88%)\nWriting library                  : XviD 57\n\nAudio\nID                               : 1\nFormat                           : MPEG Audio\nFormat version                   : Version 1\nFormat profile                   : Layer 3\nMode                             : Joint stereo\nMode extension                   : MS Stereo\nCodec ID                         : 55\nCodec ID/Hint                    : MP3\nDuration                         : 20mn 44s\nBit rate mode                    : Variable\nBit rate                         : 128 Kbps\nChannel(s)                       : 2 channels\nSampling rate                    : 48.0 KHz\nCompression mode                 : Lossy\nStream size                      : 18.3 MiB (10%)\nAlignment                        : Aligned on interleaves\nInterleave, duration             : 24 ms (0.60 video frame)\nInterleave, preload duration     : 149 ms\nWriting library                  : LAME3.98r\nEncoding settings                : -m j -V 4 -q 2 -lowpass 17 --abr 128\n","torrent":{"xt":"urn:btih:993f5b9a021321141b8e62465b35232f8ee2d927","amp;dn":"Two+And+A+Half+Men+Dva+ipo+muskarca+serijal+8%2Bprevod","amp;tr":["udp%3A%2F%2Ftracker.openbittorrent.com%3A80","udp%3A%2F%2Fopen.demonii.com%3A1337","udp%3A%2F%2Ftracker.coppersurfer.tk%3A6969","udp%3A%2F%2Fexodus.desync.com%3A6969"],"infoHash":"993f5b9a021321141b8e62465b35232f8ee2d927","infoHashBuffer":{"type":"Buffer","data":[153,63,91,154,2,19,33,20,27,142,98,70,91,53,35,47,142,226,217,39]},"announce":[],"urlList":[]}}